<mxfile host="drawio-plugin" modified="2021-09-20T20:30:20.587Z" agent="5.0 (X11; Linux x86_64) AppleWebKit/537.36 (KHTML, like Gecko) Chrome/87.0.4280.141 Safari/537.36" etag="EFnwIarFoL2Ry4ITE6Bf" version="14.7.4" type="embed"><diagram id="23iRSUPoRavnBvh4doch" name="Page-1"><mxGraphModel dx="865" dy="502" grid="1" gridSize="10" guides="1" tooltips="1" connect="1" arrows="1" fold="1" page="1" pageScale="1" pageWidth="827" pageHeight="1169" math="0" shadow="0"><root><mxCell id="0"/><mxCell id="1" parent="0"/><mxCell id="2" value="Reader" style="html=1;" parent="1" vertex="1"><mxGeometry x="90" y="30" width="110" height="50" as="geometry"/></mxCell><mxCell id="3" value="Writer" style="html=1;" parent="1" vertex="1"><mxGeometry x="230" y="30" width="110" height="50" as="geometry"/></mxCell><mxCell id="5" style="edgeStyle=orthogonalEdgeStyle;rounded=0;orthogonalLoop=1;jettySize=auto;html=1;" parent="1" source="4" edge="1"><mxGeometry relative="1" as="geometry"><mxPoint x="370" y="50" as="targetPoint"/></mxGeometry></mxCell><mxCell id="4" value="&lt;h1&gt;Flujos de texto&lt;/h1&gt;" style="text;html=1;strokeColor=none;fillColor=none;spacing=5;spacingTop=-20;whiteSpace=wrap;overflow=hidden;rounded=0;" parent="1" vertex="1"><mxGeometry x="430" y="30" width="230" height="40" as="geometry"/></mxCell><mxCell id="6" value="InputStream" style="html=1;" parent="1" vertex="1"><mxGeometry x="90" y="130" width="110" height="50" as="geometry"/></mxCell><mxCell id="7" value="OutputStream" style="html=1;" parent="1" vertex="1"><mxGeometry x="230" y="130" width="110" height="50" as="geometry"/></mxCell><mxCell id="8" style="edgeStyle=orthogonalEdgeStyle;rounded=0;orthogonalLoop=1;jettySize=auto;html=1;" parent="1" source="9" edge="1"><mxGeometry relative="1" as="geometry"><mxPoint x="370" y="150" as="targetPoint"/></mxGeometry></mxCell><mxCell id="9" value="&lt;h1&gt;Flujos binarios&lt;/h1&gt;" style="text;html=1;strokeColor=none;fillColor=none;spacing=5;spacingTop=-20;whiteSpace=wrap;overflow=hidden;rounded=0;" parent="1" vertex="1"><mxGeometry x="430" y="130" width="230" height="40" as="geometry"/></mxCell><mxCell id="10" value="FileInputStream" style="html=1;" vertex="1" parent="1"><mxGeometry x="90" y="230" width="110" height="50" as="geometry"/></mxCell><mxCell id="11" value="Extends" style="endArrow=block;endSize=16;endFill=0;html=1;" edge="1" parent="1" source="10" target="6"><mxGeometry width="160" relative="1" as="geometry"><mxPoint x="200" y="450" as="sourcePoint"/><mxPoint x="360" y="450" as="targetPoint"/></mxGeometry></mxCell><mxCell id="12" value="DataInputStream" style="html=1;" vertex="1" parent="1"><mxGeometry x="230" y="260" width="110" height="50" as="geometry"/></mxCell><mxCell id="13" value="Extends" style="endArrow=block;endSize=16;endFill=0;html=1;" edge="1" source="12" parent="1"><mxGeometry width="160" relative="1" as="geometry"><mxPoint x="340" y="480" as="sourcePoint"/><mxPoint x="188.0769230769231" y="180" as="targetPoint"/></mxGeometry></mxCell><mxCell id="14" value="Extends" style="endArrow=block;endSize=16;endFill=0;html=1;entryX=1;entryY=1;entryDx=0;entryDy=0;" edge="1" source="15" parent="1" target="6"><mxGeometry width="160" relative="1" as="geometry"><mxPoint x="461.92" y="480" as="sourcePoint"/><mxPoint x="309.9969230769231" y="180" as="targetPoint"/></mxGeometry></mxCell><mxCell id="15" value="ObjectInputStream" style="html=1;" vertex="1" parent="1"><mxGeometry x="351.92" y="260" width="110" height="50" as="geometry"/></mxCell></root></mxGraphModel></diagram></mxfile>